<svg xmlns="http://www.w3.org/2000/svg" width="1010.25" height="200" viewBox="0 0 1010.25 200"><path d="M279.55 126.91q0-6.63-4.68-10.19t-16.88-7.5a120.09 120.09 0 0 1-19.3-7.77Q219.33 91 219.32 73.24a27.43 27.43 0 0 1 5.18-16.44q5.19-7.23 14.92-11.29a56.1 56.1 0 0 1 21.83-4.06 51.14 51.14 0 0 1 21.72 4.41 34.6 34.6 0 0 1 14.83 12.46 32.66 32.66 0 0 1 5.27 18.28h-23.44q0-7.81-4.92-12.15t-13.83-4.33q-8.59 0-13.36 3.63a11.47 11.47 0 0 0-4.76 9.57q0 5.55 5.58 9.3t16.45 7q20 6 29.14 14.92a29.73 29.73 0 0 1 9.14 22.19q0 14.76-11.17 23.16t-30.08 8.4a58.16 58.16 0 0 1-23.91-4.8q-10.77-4.79-16.41-13.14a33.67 33.67 0 0 1-5.7-19.35h23.52q0 18.83 22.5 18.82 8.35 0 13.05-3.39a11.07 11.07 0 0 0 4.68-9.52ZM351 140.12a14.83 14.83 0 0 0 10.16-3.44 12.08 12.08 0 0 0 4.06-9.14h21.17a28.86 28.86 0 0 1-4.69 15.74 30.93 30.93 0 0 1-12.61 11.1 39.64 39.64 0 0 1-17.7 3.94q-18.12 0-28.59-11.52T312.33 115v-1.48q0-19.53 10.39-31.18t28.52-11.64q15.86 0 25.43 9t9.72 24h-21.17a15.56 15.56 0 0 0-4.06-10.7 13.57 13.57 0 0 0-10.32-4.12q-7.89 0-11.91 5.75t-4 18.66v2.35q0 13.06 4 18.78t12.07 5.7Zm46.5-89.77a11.15 11.15 0 0 1 3.42-8.35q3.4-3.29 9.26-3.28T419.4 42a11.08 11.08 0 0 1 3.44 8.36 11.08 11.08 0 0 1-3.48 8.44 14.49 14.49 0 0 1-18.36 0 11.08 11.08 0 0 1-3.5-8.45Zm24 106.41h-22.65V72.23h22.65Zm101.62-13.52q-5 7.11-15.67 11.1a67.89 67.89 0 0 1-23.86 4 44.22 44.22 0 0 1-23.75-6.41 42.62 42.62 0 0 1-16.1-18.12q-5.7-11.71-5.78-26.88V92.54q0-23.67 12-37.38t32.11-13.71q17.58 0 28.28 8.94T523.04 75h-9.61q-2.11-12.54-10.2-19t-21.13-6.43q-15.93 0-25.23 11.34t-9.3 32v13.44a56.2 56.2 0 0 0 4.41 23 35 35 0 0 0 12.66 15.44 33.45 33.45 0 0 0 18.95 5.48q12.42 0 21.32-3.91a22.92 22.92 0 0 0 8.6-6V110.9h-30.55v-8.13h40.16Zm72.03 13.52a44.6 44.6 0 0 1-1.79-11.8 32.51 32.51 0 0 1-12.54 9.88 38.39 38.39 0 0 1-16.13 3.48q-12.2 0-19.73-6.8a22.12 22.12 0 0 1-7.54-17.18q0-12.34 10.27-19.54t28.64-7.18h16.95V98q0-9.06-5.59-14.26t-16.29-5.2q-9.76 0-16.17 5t-6.4 12l-9.33-.03q0-10.08 9.38-17.46t23-7.39q14.14 0 22.31 7.07t8.4 19.73v40q0 12.27 2.57 18.36v.94ZM565.78 150a31.4 31.4 0 0 0 16.72-4.49 26.68 26.68 0 0 0 10.74-12.11v-18.6h-16.68q-14 .17-21.87 5.12t-7.9 13.63a15.1 15.1 0 0 0 5.28 11.8q5.27 4.65 13.71 4.65Zm71.45-99.41v21.64h17.5v7.65h-17.5v56.39q0 7 2.54 10.48c1.69 2.3 4.52 3.45 8.47 3.45a56.86 56.86 0 0 0 7.58-.79l.39 7.59a30.47 30.47 0 0 1-10 1.32q-9.6 0-14-5.59t-4.38-16.44V79.88h-15.52v-7.65h15.54V50.59Zm66.41 107.73a36.68 36.68 0 0 1-19.49-5.32 36.2 36.2 0 0 1-13.56-14.81 46.11 46.11 0 0 1-4.84-21.29v-3.36a49.75 49.75 0 0 1 4.72-22 37.62 37.62 0 0 1 13.17-15.35 32.5 32.5 0 0 1 18.28-5.59q15.39 0 24.41 10.51t9 28.71v5.24h-60.29v1.79q0 14.39 8.25 24a26.21 26.21 0 0 0 20.74 9.57 30.5 30.5 0 0 0 13.24-2.73A29.39 29.39 0 0 0 727.7 139l5.86 4.45q-10.3 14.87-29.92 14.87Zm-1.72-79.69a23.35 23.35 0 0 0-17.77 7.74q-7.23 7.72-8.79 20.78h50.7v-1q-.39-12.18-6.95-19.84a21.58 21.58 0 0 0-17.19-7.68Zm68.67 58.67 1.41 7.27 1.88-7.66 20.31-64.68h8l20.08 64.14 2.18 8.9 1.8-8.2 17.34-64.84h9.69l-24.61 84.53h-8l-21.72-67-1-4.61-1 4.68-21.33 67h-8l-24.53-84.6h9.61Zm148.91 19.46a44.6 44.6 0 0 1-1.79-11.8 32.51 32.51 0 0 1-12.54 9.88 38.39 38.39 0 0 1-16.13 3.48q-12.2 0-19.73-6.8a22.12 22.12 0 0 1-7.54-17.18q0-12.34 10.27-19.54t28.64-7.18h16.95V98q0-9.06-5.59-14.26t-16.29-5.2q-9.76 0-16.17 5t-6.4 12l-9.38-.08q0-10.08 9.38-17.46t23-7.39q14.15 0 22.31 7.07t8.4 19.73v40q0 12.27 2.57 18.36v.94ZM890.17 150a31.4 31.4 0 0 0 16.76-4.53 26.68 26.68 0 0 0 10.74-12.11V114.8h-16.72q-14 .17-21.87 5.12t-7.89 13.63a15.09 15.09 0 0 0 5.27 11.8q5.27 4.65 13.71 4.65Zm85.33-6.68 24.68-71.09h10.08l-36.09 98.9-1.88 4.38q-6.94 15.39-21.48 15.39a26.22 26.22 0 0 1-7.19-1.1l-.08-7.73 4.85.47q6.87 0 11.13-3.4t7.23-11.68l4.14-11.41L939 72.23h10.24Z" data-name="Text" fill="#fff"/><circle cx="100" cy="100" r="100" fill="#fff" data-name="White circle"/><path d="M150.01 13.39 49.02 71.7a30.017 30.017 0 0 0 30 52l50.23-29a10 10 0 1 1 10 17.32L89.02 141a50 50 0 0 1-50-86.6l87.85-50.74a100 100 0 0 0-76.88 183l101-58.31a30.017 30.017 0 0 0-30-52l-50.23 29A10.015 10.015 0 0 1 60.75 88l50.23-29a50 50 0 1 1 50 86.6l-87.85 50.74a100 100 0 0 0 76.88-182.95Z" fill="#1e5df8" data-name="S mark"/></svg>