<svg xmlns="http://www.w3.org/2000/svg" width="1012.52" height="200.12" viewBox="0 0 1012.52 200.12"><g id="b67d54b9-f118-48a6-8562-68455e0371a8" data-name="Text"><text transform="translate(210.41 156.76)" font-size="160" fill="#2e2d62" font-family="Roboto-Bold, Roboto" font-weight="700"><tspan letter-spacing="-0.01em">Sc</tspan><tspan x="178.6" y="0" letter-spacing="-0.03em">i</tspan><tspan x="216.22" y="0" font-family="Roboto-Light, Roboto" font-weight="300" letter-spacing="-0.04em">G</tspan><tspan x="319.19" y="0" font-family="Roboto-Light, Roboto" font-weight="300" letter-spacing="-0.03em">a</tspan><tspan x="400.1" y="0" font-family="Roboto-Light, Roboto" font-weight="300" letter-spacing="-0.02em">te</tspan><tspan x="527.76" y="0" font-family="Roboto-Light, Roboto" font-weight="300" letter-spacing="-0.03em">w</tspan><tspan x="643.58" y="0" font-family="Roboto-Light, Roboto" font-weight="300" letter-spacing="-0.02em">a</tspan><tspan x="726.09" y="0" font-family="Roboto-Light, Roboto" font-weight="300">y</tspan></text></g><g id="ec13ce9e-12ad-44b1-8eb0-ac44af9416d9" data-name="White circle"><circle cx="100" cy="100" r="100" fill="#fff"/></g><g id="be2e44ee-4410-4fff-a2e7-791b6eb352ab" data-name="S mark"><path d="M150.51,13.39,49.52,71.7a30,30,0,0,0,30,52l50.23-29a10,10,0,1,1,10,17.32L89.52,141a50,50,0,0,1-50-86.6L127.37,3.66a100,100,0,0,0-76.88,183l101-58.31a30,30,0,0,0-30-52l-50.23,29A10,10,0,0,1,61.25,88l50.23-29a50,50,0,1,1,50,86.6L73.63,196.34A100,100,0,0,0,150.51,13.39Z" transform="translate(-0.5)" fill="#1e5df8"/></g></svg>